<?xml version="1.0" encoding="UTF-8" standalone="no"?>
<!-- Generator: Adobe Illustrator 15.0.2, SVG Export Plug-In . SVG Version: 6.00 Build 0)  -->

<svg
   xmlns:dc="http://purl.org/dc/elements/1.1/"
   xmlns:cc="http://creativecommons.org/ns#"
   xmlns:rdf="http://www.w3.org/1999/02/22-rdf-syntax-ns#"
   xmlns:svg="http://www.w3.org/2000/svg"
   xmlns="http://www.w3.org/2000/svg"
   xmlns:sodipodi="http://sodipodi.sourceforge.net/DTD/sodipodi-0.dtd"
   xmlns:inkscape="http://www.inkscape.org/namespaces/inkscape"
   version="1.1"
   id="Layer_1"
   x="0px"
   y="0px"
   width="130px"
   height="130px"
   viewBox="0 0 130 130"
   enable-background="new 0 0 130 130"
   xml:space="preserve"
   inkscape:version="0.48.3.1 r9886"
   sodipodi:docname="greytocat.svg"><metadata
   id="metadata24"><rdf:RDF><cc:Work
       rdf:about=""><dc:format>image/svg+xml</dc:format><dc:type
         rdf:resource="http://purl.org/dc/dcmitype/StillImage" /><dc:title /></cc:Work></rdf:RDF></metadata><defs
   id="defs22">
	
	

		
	</defs><sodipodi:namedview
   pagecolor="#ffffff"
   bordercolor="#666666"
   borderopacity="1"
   objecttolerance="10"
   gridtolerance="10"
   guidetolerance="10"
   inkscape:pageopacity="0"
   inkscape:pageshadow="2"
   inkscape:window-width="1366"
   inkscape:window-height="699"
   id="namedview20"
   showgrid="false"
   inkscape:zoom="3.6307692"
   inkscape:cx="0.56467345"
   inkscape:cy="55.86557"
   inkscape:window-x="0"
   inkscape:window-y="-3"
   inkscape:window-maximized="1"
   inkscape:current-layer="Layer_1" />

<path
   id="SVGID_1_"
   d="m 64.897776,-0.03650776 c -35.654,0 -64.52700034,28.93499976 -64.52700034,64.64399976 0,35.723998 28.87300034,64.648998 64.52700034,64.648998 35.903004,0 64.774004,-28.926 64.774004,-64.648998 0,-35.709 -28.871,-64.64399976 -64.774004,-64.64399976 z M 102.00578,71.803492 c 1.041,-3.834 1.358,-8.235 1.332,-13.146 -0.014,-7.045 -2.691,-12.675 -6.989004,-16.94 0.735,-2.427 1.72,-7.814 -1.054,-14.7 0,0 -4.854,-1.518 -15.81,5.874 -4.299,-1.061 -8.875,-1.568 -13.45,-1.561 -5.049,0.021 -10.139,0.68 -14.882,2.004 -11.357,-7.696 -16.349,-6.094 -16.349,-6.094 -3.231,8.189 -1.192,14.23 -0.582,15.733 -3.798,4.161 -6.129,9.465 -6.115,15.954 0.028,4.896 0.596,9.292 2.059,13.348 0.395,1.036 0.728,1.798 1.102,2.54 l 0.25,0.455 c 3.855,7.136 11.399,11.719 24.823,13.111 -1.914,1.297 -3.841,3.481 -4.618,7.157 -2.579,1.264 -10.789,4.327 -15.739,-4.145 0,0 -2.774,-5.042 -8.043,-5.417 0,0 -5.132,-0.062 -0.361,3.196 0,0 3.439,1.608 5.824,7.676 0,0 3.121,10.352998 17.987,6.975998 l 0.041,10.706 c 0,0 -0.111,1.357 -0.957,2.732 -19.096,-5.243 -34.003,-20.636998 -38.58,-40.050998 l -0.11,-0.456 c -0.278,-1.256 -0.528,-2.508 -0.7635,-4.0285 -0.4025,-2.8075 -0.5955,-5.4365 -0.5955,-8.1195 -0.015,-30.148 24.393,-54.597 54.485,-54.597 30.329,0 54.722004,24.449 54.722004,54.597 0,2.413 -0.18,4.782 -0.486,7.112 l -0.055,0.466 c -0.181,1.277 -0.388,2.525 -0.652,3.773 l -0.11,0.45 c -4.091,18.632 -17.697,33.668998 -35.529004,39.812998 -1.012,-0.943 -1.139,-1.795 -1.139,-1.795 l -0.056,-15.310998 c -0.013,-5.97 -2.537,-9.117 -4.991,-10.781 14.285,-1.471 21.135,-6.121 24.268004,-13.32 l 0.209,-0.472 c 0.291,-0.726 0.555,-1.484 0.777,-2.259 z M 58.337776,118.80149 c -0.722,-0.092 -1.429,-0.18 -2.136,-0.293 0.735,-0.873 1.221,-2.086 1.207,-3.84 l -0.028,-11.685 c 0,0 -0.416,-4.617998 1.858,-6.238998 l 0.07,19.177998 c 0,0.002 -0.153,1.417 -0.971,2.879 z m 6.573,0.403 c -0.042,0 -0.083,-0.007 -0.111,-0.007 0.458,-0.937 0.75,-2.114 0.805,-3.612 l 0.083,-19.407998 1.596,-0.008 0.206,19.402998 c 0.071,1.461 0.362,2.613 0.778,3.521 -1.111,0.062 -2.232,0.111 -3.357,0.111 z m 9.293,-0.798 c -0.361,-1.366 -0.402,-2.539 -0.402,-2.539 l -0.07,-19.012998 c 2.274,1.762 1.914,6.067998 1.914,6.067998 l 0.041,11.684 c 0,1.447 0.332,2.537 0.858,3.354 -0.776,0.175 -1.565,0.313 -2.341,0.446 z"
   inkscape:connector-curvature="0"
   style="fill:#404040;fill-opacity:1"
   sodipodi:nodetypes="sssssccccccccccccccccccccccccccsscccccccccccccccccccsccccccsccccccc" />
</svg>